<?xml version="1.0" encoding="UTF-8"?>
<svg xmlns="http://www.w3.org/2000/svg" version="1.1" viewBox="0 0 520 120">
  <defs>
    <style>
      .cls-1 {
        fill: #666;
      }
    </style>
  </defs>
  <!-- Generator: Adobe Illustrator 28.6.0, SVG Export Plug-In . SVG Version: 1.2.0 Build 709)  -->
  <g>
    <g id="Capa_1">
      <g>
        <path class="cls-1" d="M12,37.01v22.05h7.49v-7.21h46.7v7.21h7.22V21.58H27.43c-8.52,0-15.43,6.91-15.43,15.43h0ZM66.2,28.77v15.86H19.49v-6.51c0-5.16,4.18-9.35,9.35-9.35h37.36Z"/>
        <path class="cls-1" d="M130.22,21.58h-45.99v37.48h61.42v-22.05c0-8.52-6.91-15.43-15.43-15.43ZM138.15,51.85h-46.7v-23.07h37.36c5.16,0,9.35,4.18,9.35,9.35v13.74-.02Z"/>
        <path class="cls-1" d="M391.18,28.77h44.58v-7.21h-45.99c-8.52,0-15.43,6.91-15.43,15.43v22.05h61.42v-7.21h-53.93v-13.74c0-5.16,4.18-9.35,9.35-9.35v.02Z"/>
        <path class="cls-1" d="M229.87,37.01v22.05h7.49v-7.21h46.7v7.21h7.22V21.58h-45.99c-8.52,0-15.43,6.91-15.43,15.43h0ZM284.06,28.77v15.86h-46.7v-6.51c0-5.16,4.18-9.35,9.35-9.35h37.36Z"/>
        <polygon class="cls-1" points="188.91 53.31 160.52 21.56 150.1 21.56 183.75 59.06 188.91 59.06 194.06 59.06 227.71 21.56 217.3 21.56 188.91 53.31"/>
        <polygon class="cls-1" points="356.32 52.42 313.17 21.58 302.13 21.58 302.13 59.06 309.32 59.06 309.32 28.2 353.04 59.06 363.59 59.06 363.59 21.58 356.32 21.58 356.32 52.42"/>
        <path class="cls-1" d="M463.42,28.77h44.58v-7.21h-45.99c-8.52,0-15.43,6.91-15.43,15.43v22.05h61.42v-7.21h-53.93v-8.35h53.93v-6.35h-53.86c.49-4.69,4.47-8.36,9.28-8.36Z"/>
      </g>
      <g>
        <path class="cls-1" d="M115.82,72.69h-31.57v25.74h42.17v-15.15c0-5.85-4.74-10.6-10.6-10.6ZM121.27,93.47h-32.07v-15.84h25.65c3.55,0,6.42,2.87,6.42,6.42v9.43Z"/>
        <polygon class="cls-1" points="382.8 93.87 353.17 72.69 345.58 72.69 345.58 98.43 350.54 98.43 350.54 77.25 380.55 98.43 387.79 98.43 387.79 72.69 382.8 72.69 382.8 93.87"/>
        <path class="cls-1" d="M143.76,77.65h30.61v-4.94h-31.57c-5.85,0-10.6,4.74-10.6,10.6v15.15h42.17v-4.94h-37.02v-5.74h37.02v-4.37h-36.99c.33-3.23,3.06-5.74,6.38-5.74v-.02Z"/>
        <polygon class="cls-1" points="291.81 93.49 291.81 72.69 286.85 72.69 286.85 93.49 286.85 98.43 291.81 98.43 329.06 98.43 329.06 93.49 291.81 93.49"/>
        <path class="cls-1" d="M405.15,77.65h30.61v-4.94h-31.57c-5.85,0-10.6,4.74-10.6,10.6v15.15h42.17v-15.05h-4.37v10.11h-32.65v-9.43c0-3.55,2.87-6.42,6.42-6.42v-.02Z"/>
        <path class="cls-1" d="M228.16,83.29v15.15h5.15v-4.94h32.07v4.94h4.96v-25.74h-31.57c-5.85,0-10.6,4.74-10.6,10.6ZM265.37,77.65v10.88h-32.07v-4.47c0-3.55,2.87-6.42,6.42-6.42h25.65Z"/>
        <polygon class="cls-1" points="198.8 77.63 198.8 98.43 203.74 98.43 203.74 77.63 222.37 77.63 222.37 72.69 217.43 72.69 180.17 72.69 180.17 77.63 198.8 77.63"/>
        <rect class="cls-1" x="276.13" y="72.69" width="4.94" height="25.74"/>
        <rect class="cls-1" x="334.86" y="72.69" width="4.94" height="25.74"/>
      </g>
    </g>
  </g>
</svg>