<?xml version="1.0" encoding="UTF-8"?>
<svg xmlns="http://www.w3.org/2000/svg" version="1.1" viewBox="0 0 520 120">
  <defs>
    <style>
      .cls-1 {
        fill: #e2801e;
      }
    </style>
  </defs>
  <!-- Generator: Adobe Illustrator 28.6.0, SVG Export Plug-In . SVG Version: 1.2.0 Build 709)  -->
  <g>
    <g id="Capa_1">
      <g>
        <path class="cls-1" d="M40.12,7.3c-16.63,0-30.12,13.49-30.12,30.12v75.27h137.72c16.63,0,30.12-13.49,30.12-30.12V7.3H40.12ZM162.54,82.72c0,8.11-6.57,14.68-14.68,14.68H25.29v-59.81c0-8.29,6.72-15.01,15.01-15.01h122.24v60.14Z"/>
        <g>
          <path d="M196.92,45.49v13.92h4.73v-4.55h29.48v4.55h4.56v-23.66h-29.03c-5.38,0-9.74,4.36-9.74,9.74ZM231.13,40.29v10.01h-29.48v-4.11c0-3.26,2.64-5.9,5.9-5.9h23.58Z"/>
          <path d="M271.54,35.75h-29.03v23.66h38.77v-13.92c0-5.38-4.36-9.74-9.74-9.74ZM276.55,54.86h-29.48v-14.56h23.58c3.26,0,5.9,2.64,5.9,5.9v8.67Z"/>
          <path d="M436.26,40.29h28.14v-4.55h-29.03c-5.38,0-9.74,4.36-9.74,9.74v13.92h38.77v-4.55h-34.04v-8.67c0-3.26,2.64-5.9,5.9-5.9Z"/>
          <path d="M334.44,45.49v13.92h4.73v-4.55h29.48v4.55h4.56v-23.66h-29.03c-5.38,0-9.74,4.36-9.74,9.74ZM368.65,40.29v10.01h-29.48v-4.11c0-3.26,2.64-5.9,5.9-5.9h23.58Z"/>
          <polygon points="308.59 55.78 290.67 35.74 284.09 35.74 305.33 59.41 308.59 59.41 311.84 59.41 333.08 35.74 326.51 35.74 308.59 55.78"/>
          <polygon points="414.26 55.22 387.02 35.75 380.05 35.75 380.05 59.41 384.59 59.41 384.59 39.93 412.19 59.41 418.85 59.41 418.85 35.75 414.26 35.75 414.26 55.22"/>
          <path d="M481.86,40.29h28.14v-4.55h-29.03c-5.38,0-9.74,4.36-9.74,9.74v13.92h38.77v-4.55h-34.04v-5.27h34.04v-4.01h-34c.31-2.96,2.82-5.28,5.86-5.28Z"/>
        </g>
        <g>
          <path d="M216.85,68.01h-19.93v16.25h26.62v-9.56c0-3.69-2.99-6.69-6.69-6.69ZM220.29,81.13h-20.24v-10h16.19c2.24,0,4.05,1.81,4.05,4.05v5.95Z"/>
          <polygon points="385.37 81.38 366.67 68.01 361.88 68.01 361.88 84.26 365.01 84.26 365.01 70.89 383.95 84.26 388.52 84.26 388.52 68.01 385.37 68.01 385.37 81.38"/>
          <path d="M234.49,71.14h19.32v-3.12h-19.93c-3.69,0-6.69,2.99-6.69,6.69v9.56h26.62v-3.12h-23.37v-3.62h23.37v-2.76h-23.35c.21-2.04,1.93-3.62,4.03-3.62Z"/>
          <polygon points="327.94 81.14 327.94 68.01 324.81 68.01 324.81 81.14 324.81 84.26 327.94 84.26 351.45 84.26 351.45 81.14 327.94 81.14"/>
          <path d="M399.48,71.14h19.32v-3.12h-19.93c-3.69,0-6.69,2.99-6.69,6.69v9.56h26.62v-9.5h-2.76v6.38h-20.61v-5.95c0-2.24,1.81-4.05,4.05-4.05Z"/>
          <path d="M287.76,74.7v9.56h3.25s0-3.12,0-3.12h20.24s0,3.12,0,3.12h3.13v-16.25h-19.93c-3.69,0-6.69,2.99-6.69,6.69ZM311.25,71.14v6.87h-20.24s0-2.82,0-2.82c0-2.24,1.81-4.05,4.05-4.05h16.19Z"/>
          <polygon points="269.23 71.13 269.23 84.26 272.35 84.26 272.35 71.13 284.11 71.13 284.11 68.01 280.99 68.01 257.47 68.01 257.47 71.13 269.23 71.13"/>
          <rect x="318.04" y="68.01" width="3.12" height="16.25"/>
          <rect x="355.11" y="68.01" width="3.12" height="16.25"/>
        </g>
      </g>
    </g>
  </g>
</svg>