<?xml version="1.0" encoding="UTF-8"?>
<svg xmlns="http://www.w3.org/2000/svg" version="1.1" viewBox="0 0 300 154.92">
  <defs>
    <style>
      .cls-1 {
        fill: #e2801e;
      }
    </style>
  </defs>
  <!-- Generator: Adobe Illustrator 28.6.0, SVG Export Plug-In . SVG Version: 1.2.0 Build 709)  -->
  <g>
    <g id="Capa_1">
      <path class="cls-1" d="M98.45,0c-15.94,0-28.86,12.92-28.86,28.86v72.13h131.96c15.94,0,28.86-12.92,28.86-28.86V0H98.45ZM215.75,72.27c0,7.77-6.3,14.07-14.07,14.07h-117.44V29.03c0-7.94,6.44-14.39,14.39-14.39h117.13v57.63Z"/>
      <g>
        <path d="M0,141.58v13.34h4.54v-4.36h28.24v4.36h4.37v-22.67H9.33c-5.15,0-9.33,4.18-9.33,9.33ZM32.78,136.6v9.59H4.54v-3.94c0-3.12,2.53-5.65,5.65-5.65h22.6Z"/>
        <path d="M71.51,132.25h-27.82v22.67h37.15v-13.34c0-5.15-4.18-9.33-9.33-9.33ZM76.3,150.56h-28.24v-13.95h22.6c3.12,0,5.65,2.53,5.65,5.65v8.3Z"/>
        <path d="M229.34,136.6h26.96v-4.36h-27.82c-5.15,0-9.33,4.18-9.33,9.33v13.34h37.15v-4.36h-32.61v-8.3c0-3.12,2.53-5.65,5.65-5.65Z"/>
        <path d="M131.78,141.58v13.34h4.54v-4.36h28.24v4.36h4.37v-22.67h-27.82c-5.15,0-9.33,4.18-9.33,9.33ZM164.56,136.6v9.59h-28.24v-3.94c0-3.12,2.53-5.65,5.65-5.65h22.6Z"/>
        <polygon points="107 151.45 89.83 132.24 83.53 132.24 103.88 154.92 107 154.92 110.12 154.92 130.48 132.24 124.18 132.24 107 151.45"/>
        <polygon points="208.26 150.91 182.16 132.25 175.48 132.25 175.48 154.92 179.83 154.92 179.83 136.25 206.28 154.92 212.66 154.92 212.66 132.25 208.26 132.25 208.26 150.91"/>
        <path d="M273.04,136.6h26.96v-4.36h-27.82c-5.15,0-9.33,4.18-9.33,9.33v13.34h37.15v-4.36h-32.61v-5.05h32.61v-3.85h-32.58c.3-2.84,2.7-5.06,5.62-5.06Z"/>
      </g>
    </g>
  </g>
</svg>