<?xml version="1.0" encoding="UTF-8"?>
<svg xmlns="http://www.w3.org/2000/svg" version="1.1" viewBox="0 0 200 200">
  <defs>
    <style>
      .cls-1 {
        fill: #e2801e;
      }
    </style>
  </defs>
  <!-- Generator: Adobe Illustrator 28.6.0, SVG Export Plug-In . SVG Version: 1.2.0 Build 709)  -->
  <g>
    <g id="Capa_1">
      <path class="cls-1" d="M167.79,34.81H32.29c-12.27,0-22.25,9.98-22.25,22.25v85.32c0,12.27,9.98,22.25,22.25,22.25h135.5c12.27,0,22.25-9.98,22.25-22.25V57.06c0-12.27-9.98-22.25-22.25-22.25ZM181.22,57.06v85.32c0,1.98-.43,3.86-1.21,5.55l-55.05-48.21,55.05-48.21c.77,1.69,1.21,3.57,1.21,5.55ZM167.79,43.63c2.02,0,3.93.45,5.64,1.25l-69.19,60.59c-2.4,2.1-6.01,2.1-8.41,0L26.64,44.88c1.72-.8,3.63-1.25,5.65-1.25h135.5ZM20.07,147.93c-.77-1.69-1.21-3.57-1.21-5.55V57.06c0-1.98.43-3.86,1.21-5.55l55.05,48.21-55.05,48.21ZM32.29,155.8c-2.02,0-3.93-.45-5.65-1.25l55.54-48.64,7.51,6.57c2.95,2.58,6.65,3.87,10.34,3.87s7.4-1.29,10.34-3.87l7.51-6.57,55.54,48.64c-1.72.8-3.63,1.25-5.65,1.25H32.29Z"/>
    </g>
  </g>
</svg>