<?xml version="1.0" encoding="UTF-8"?>
<svg xmlns="http://www.w3.org/2000/svg" version="1.1" viewBox="0 0 200 200">
  <defs>
    <style>
      .cls-1 {
        fill: #666;
      }
    </style>
  </defs>
  <!-- Generator: Adobe Illustrator 28.6.0, SVG Export Plug-In . SVG Version: 1.2.0 Build 709)  -->
  <g>
    <g id="Capa_1">
      <g>
        <path class="cls-1" d="M100,190c-49.63,0-90-40.37-90-90S50.37,10,100,10s90,40.37,90,90-40.37,90-90,90ZM100,16.82c-45.86,0-83.18,37.31-83.18,83.18s37.31,83.18,83.18,83.18,83.18-37.31,83.18-83.18S145.86,16.82,100,16.82Z"/>
        <path class="cls-1" d="M86.81,152.34h21.08v-52.78h14.71l1.57-17.67h-16.27v-10.07c0-4.17.84-5.81,4.87-5.81h11.41v-18.34h-14.6c-15.68,0-22.76,6.91-22.76,20.13v14.09h-10.96v17.89h10.96v52.56Z"/>
      </g>
    </g>
  </g>
</svg>