<?xml version="1.0" encoding="UTF-8"?>
<svg xmlns="http://www.w3.org/2000/svg" version="1.1" viewBox="0 0 200 200">
  <defs>
    <style>
      .cls-1 {
        fill: #666;
      }
    </style>
  </defs>
  <!-- Generator: Adobe Illustrator 28.6.0, SVG Export Plug-In . SVG Version: 1.2.0 Build 709)  -->
  <g>
    <g id="Capa_1">
      <g>
        <path class="cls-1" d="M100,190c-49.63,0-90-40.37-90-90S50.37,10,100,10s90,40.37,90,90-40.37,90-90,90ZM100,16.82c-45.86,0-83.18,37.31-83.18,83.18s37.31,83.18,83.18,83.18,83.18-37.31,83.18-83.18S145.86,16.82,100,16.82Z"/>
        <g>
          <path class="cls-1" d="M100,61.08c12.68,0,14.18.05,19.18.28,4.63.21,7.14.98,8.82,1.64,2.22.86,3.8,1.89,5.46,3.55,1.66,1.66,2.69,3.24,3.55,5.46.65,1.67,1.42,4.19,1.64,8.82.23,5.01.28,6.51.28,19.18s-.05,14.18-.28,19.18c-.21,4.63-.98,7.14-1.64,8.82-.86,2.22-1.89,3.8-3.55,5.46-1.66,1.66-3.24,2.69-5.46,3.55-1.67.65-4.19,1.42-8.82,1.64-5.01.23-6.51.28-19.18.28s-14.18-.05-19.18-.28c-4.63-.21-7.14-.98-8.82-1.64-2.22-.86-3.8-1.89-5.46-3.55-1.66-1.66-2.69-3.24-3.55-5.46-.65-1.67-1.42-4.19-1.64-8.82-.23-5.01-.28-6.51-.28-19.18s.05-14.18.28-19.18c.21-4.63.99-7.14,1.64-8.82.86-2.22,1.89-3.8,3.55-5.46,1.66-1.66,3.24-2.69,5.46-3.55,1.67-.65,4.19-1.42,8.82-1.64,5.01-.23,6.51-.28,19.18-.28M100,52.52c-12.89,0-14.51.06-19.57.29-5.05.23-8.5,1.03-11.52,2.21-3.12,1.21-5.77,2.84-8.41,5.48-2.64,2.64-4.26,5.29-5.48,8.41-1.17,3.02-1.98,6.47-2.21,11.52-.23,5.06-.29,6.68-.29,19.57s.05,14.51.29,19.57c.23,5.05,1.03,8.5,2.21,11.52,1.21,3.12,2.84,5.77,5.48,8.41,2.64,2.64,5.29,4.26,8.41,5.48,3.02,1.17,6.47,1.98,11.52,2.21,5.06.23,6.68.28,19.57.28s14.51-.05,19.57-.28c5.05-.23,8.5-1.03,11.52-2.21,3.12-1.21,5.77-2.84,8.41-5.48s4.26-5.29,5.48-8.41c1.17-3.02,1.98-6.47,2.21-11.52.23-5.06.28-6.68.28-19.57s-.05-14.51-.28-19.57c-.23-5.05-1.03-8.5-2.21-11.52-1.21-3.12-2.84-5.77-5.48-8.41s-5.29-4.26-8.41-5.48c-3.02-1.17-6.47-1.98-11.52-2.21-5.06-.23-6.68-.29-19.57-.29"/>
          <path class="cls-1" d="M100,75.62c-13.46,0-24.38,10.91-24.38,24.38s10.92,24.38,24.38,24.38,24.38-10.92,24.38-24.38-10.91-24.38-24.38-24.38M100,115.83c-8.74,0-15.83-7.09-15.83-15.83s7.08-15.83,15.83-15.83,15.83,7.09,15.83,15.83-7.08,15.83-15.83,15.83"/>
          <path class="cls-1" d="M131.04,74.66c0,3.15-2.55,5.7-5.7,5.7s-5.7-2.55-5.7-5.7,2.55-5.7,5.7-5.7,5.7,2.55,5.7,5.7"/>
        </g>
      </g>
    </g>
  </g>
</svg>