<?xml version="1.0" encoding="UTF-8"?>
<svg xmlns="http://www.w3.org/2000/svg" version="1.1" viewBox="0 0 200 200">
  <defs>
    <style>
      .cls-1 {
        fill: lime;
        fill-rule: evenodd;
      }
    </style>
  </defs>
  <!-- Generator: Adobe Illustrator 28.6.0, SVG Export Plug-In . SVG Version: 1.2.0 Build 709)  -->
  <g>
    <g id="OBJECTS">
      <path class="cls-1" d="M190,97.69c0,48.42-39.56,87.68-88.36,87.68-15.5,0-30.06-3.96-42.71-10.91l-48.92,15.55,15.95-47.04c-8.05-13.22-12.67-28.71-12.67-45.27C13.27,49.26,52.83,10,101.64,10s88.36,39.26,88.36,87.69h0ZM101.64,23.97c-40.97,0-74.29,33.06-74.29,73.72,0,16.12,5.25,31.06,14.15,43.22l-9.28,27.37,28.54-9.07c11.73,7.69,25.78,12.19,40.88,12.19,40.96,0,74.29-33.07,74.29-73.71S142.6,23.97,101.64,23.97h0ZM146.26,117.88c-.55-.9-1.99-1.44-4.15-2.51-2.17-1.07-12.82-6.28-14.8-6.99-1.98-.72-3.44-1.08-4.87,1.07-1.44,2.15-5.6,6.99-6.86,8.43-1.26,1.44-2.52,1.61-4.69.54-2.17-1.07-9.15-3.35-17.42-10.66-6.43-5.71-10.78-12.74-12.05-14.89-1.26-2.15-.12-3.31.95-4.38.98-.97,2.17-2.51,3.25-3.76,1.09-1.26,1.45-2.16,2.17-3.59.72-1.44.36-2.69-.18-3.76-.54-1.07-4.87-11.65-6.68-15.96-1.8-4.29-3.6-4.13-4.87-4.13s-3.6.37-3.6.37c0,0-4.34.54-6.32,2.69-1.98,2.15-7.58,7.35-7.58,17.92s7.76,20.8,8.84,22.23c1.09,1.44,14.98,23.85,37,32.45,22.02,8.6,22.02,5.73,26,5.37,3.96-.35,12.81-5.2,14.62-10.21,1.81-5.02,1.81-9.33,1.27-10.22h0ZM146.26,117.88"/>
    </g>
  </g>
</svg>